<svg id="Layer_1" enable-background="new 0 0 512 512" height="512" viewBox="0 0 512 512" width="512" xmlns="http://www.w3.org/2000/svg"><path d="m341 80h54.44c8.256 23.278 30.487 40 56.56 40 33.084 0 60-26.916 60-60s-26.916-60-60-60c-26.073 0-48.304 16.722-56.56 40h-54.44c-11.046 0-20 8.954-20 20s8.954 20 20 20zm111-40c11.028 0 20 8.972 20 20s-8.972 20-20 20-20-8.972-20-20 8.972-20 20-20zm0 90c-26.073 0-48.304 16.722-56.56 40h-55.44c-11.046 0-20 8.954-20 20s8.954 20 20 20h55.44c8.256 23.278 30.487 40 56.56 40 33.084 0 60-26.916 60-60s-26.916-60-60-60zm0 80c-11.028 0-20-8.972-20-20s8.972-20 20-20 20 8.972 20 20-8.972 20-20 20zm0 182c-26.444 0-48.931 17.203-56.899 41h-55.101c-11.046 0-20 8.954-20 20s8.954 20 20 20h55.801c8.532 22.756 30.5 39 56.199 39 33.084 0 60-26.916 60-60s-26.916-60-60-60zm0 80c-11.028 0-20-8.972-20-20s8.972-20 20-20 20 8.972 20 20-8.972 20-20 20zm0-210c-27.18 0-50.182 18.172-57.532 43h-53.468c-11.046 0-20 8.954-20 20s8.954 20 20 20h55.591c9.042 21.702 30.47 37 55.409 37 33.084 0 60-26.916 60-60s-26.916-60-60-60zm0 80c-11.028 0-20-8.972-20-20s8.972-20 20-20 20 8.972 20 20-8.972 20-20 20zm-216-212h-176c-33.084 0-60 26.916-60 60s26.916 60 60 60h68v75c0 11.046 8.954 20 20 20s20-8.954 20-20v-75h68c33.084 0 60-26.916 60-60s-26.916-60-60-60zm0 80h-176c-11.028 0-20-8.972-20-20s8.972-20 20-20h176c11.028 0 20 8.972 20 20s-8.972 20-20 20zm-70 302h-36c-44.112 0-80-35.888-80-80v-127c0-11.046 8.954-20 20-20s20 8.954 20 20v127c0 22.056 17.944 40 40 40h36c22.056 0 40-17.944 40-40v-127c0-11.046 8.954-20 20-20s20 8.954 20 20v127c0 44.112-35.888 80-80 80zm80-432c0-44.112-35.888-80-80-80h-36c-44.112 0-80 35.888-80 80 0 11.046 8.954 20 20 20s20-8.954 20-20c0-22.056 17.944-40 40-40h36c22.056 0 40 17.944 40 40 0 11.046 8.954 20 20 20s20-8.954 20-20z"/></svg>