<svg height="512pt" viewBox="0 -28 512 512" width="512pt" xmlns="http://www.w3.org/2000/svg"><path d="m447 64.699219h-208.421875l-162.253906 163.5625h370.675781zm-245.382812 79.855469v53.707031h-53.273438zm215.382812 53.707031h-185.382812v-83.851563h-.097657l19.558594-19.710937h165.921875zm0 0"/><path d="m210.886719 0-210.886719 212.589844v84.210937h15c81.257812 0 148.945312 63.457031 154.09375 144.46875l.894531 14.046875h342.011719v-455.316406zm-69.464844 316.957031c-30.675781-28.898437-69.78125-46.195312-111.421875-49.554687v-42.457032l193.382812-194.945312h258.617188v337.476562h-302.644531c-9.53125-18.6875-22.292969-35.785156-37.933594-50.519531zm56.183594 108.359375c-1.332031-9.476562-3.402344-18.78125-6.152344-27.839844h290.546875v27.839844zm0 0"/><path d="m363 253.410156h66v30h-66zm0 0"/></svg>